<svg width="32" height="15" viewBox="0 0 32 15" fill="none" xmlns="http://www.w3.org/2000/svg">
<path fill-rule="evenodd" clip-rule="evenodd" d="M31.433 6.92085C31.3128 6.41911 30.9992 6.0428 30.5915 5.6874H30.5863C30.3927 5.3497 29.9071 5.14829 29.4542 4.96044C29.3323 4.9099 29.2128 4.86033 29.102 4.80935L27.9731 4.26057C27.717 4.14036 27.4661 4.00448 27.2152 3.86859L25.7257 3.03758C25.2657 2.78923 24.8074 2.53882 24.3494 2.28855C23.1783 1.6487 22.009 1.00977 20.818 0.408657C20.7347 0.3657 20.663 0.297129 20.5909 0.228059C20.3733 0.0198123 20.151 -0.192974 19.5898 0.277995C19.4519 0.355756 19.3356 0.545868 19.2198 0.735166C19.1643 0.825774 19.109 0.916197 19.0515 0.994023C18.2413 2.08636 18.142 2.52016 18.6751 2.59333C18.7545 2.60415 18.8089 2.66723 18.8626 2.72934C18.8866 2.75724 18.9106 2.78493 18.9365 2.80761C18.8745 3.26381 19.0872 3.27696 19.3006 3.29016C19.4833 3.30145 19.6666 3.31278 19.6786 3.60204L19.6839 3.58636C20.1065 3.34833 20.3395 3.51213 20.5591 3.66651C20.5757 3.67824 20.5923 3.68991 20.6089 3.70134C21.0072 3.9787 21.3906 4.28351 21.7742 4.58856C22.3111 5.01551 22.8486 5.44291 23.4286 5.79614C22.8425 5.77838 22.2561 5.7731 21.6697 5.77154C21.0709 5.77154 20.4696 5.74018 19.8693 5.70887C19.6207 5.6959 19.3723 5.68295 19.1244 5.67224L19.1296 5.67746C19.1083 5.68728 19.0865 5.70069 19.0644 5.71432C19.0158 5.7442 18.9656 5.77513 18.9153 5.77154C18.3863 5.75187 17.858 5.72999 17.3299 5.70811C16.4545 5.67184 15.5797 5.6356 14.7028 5.60952C14.4548 5.60253 14.2044 5.6329 13.9548 5.66318C13.831 5.6782 13.7074 5.69319 13.5843 5.70359L13.5739 5.70882C13.3317 5.63403 13.0895 5.68786 12.849 5.74133C12.7365 5.76633 12.6244 5.79124 12.5129 5.8029C11.582 5.90128 10.6539 5.8846 9.72456 5.8679C9.37028 5.86153 9.01582 5.85516 8.66096 5.85516C8.13861 5.85386 7.61593 5.85092 7.09309 5.84798C5.52338 5.83916 3.9522 5.83033 2.38396 5.86562C2.27859 5.86692 2.17095 5.84005 2.06249 5.81297C1.73522 5.73127 1.40052 5.64772 1.09825 6.33077L1.10347 6.35168L1.09302 6.33077C1.00151 6.46804 0.988215 6.68828 0.974926 6.90846C0.968482 7.01523 0.962039 7.12199 0.946678 7.21927C0.732393 8.56771 0.873508 8.99628 1.43797 8.80812C1.52539 8.77898 1.61282 8.80823 1.70024 8.83749C1.73825 8.8502 1.77626 8.86292 1.81427 8.87084C2.00027 9.30484 2.21818 9.2161 2.43604 9.12739C2.62223 9.05158 2.80838 8.97577 2.97455 9.22624L2.96933 9.21056C3.26022 8.79846 3.5736 8.8316 3.87609 8.86359C3.89969 8.86608 3.92323 8.86857 3.94668 8.87084C4.50112 8.92586 5.05384 9.01344 5.60624 9.10097C6.41814 9.22962 7.22934 9.35816 8.04424 9.38304C8.96224 9.4072 9.88024 9.34063 10.7982 9.27406C11.4691 9.22541 12.1399 9.17677 12.8108 9.16352C13.6931 9.14719 14.574 9.16632 15.4543 9.18544C16.2634 9.20301 17.0719 9.22058 17.8805 9.21056C18.4984 9.20198 19.1157 9.21877 19.7332 9.23555C20.9961 9.26989 22.2597 9.30424 23.5303 9.12171C23.9651 9.0601 24.4006 9.05422 24.8362 9.07892L24.8006 9.10029C24.0846 9.53409 23.3894 9.99925 22.757 10.5637C22.113 11.1379 21.3222 11.4788 20.532 11.8194C20.2576 11.9377 19.9833 12.0559 19.7152 12.1839C19.2866 12.3878 19.3912 13.1613 20.0183 14.2222C20.5793 15.1733 20.9672 15.032 21.2289 14.9367C21.2476 14.9299 21.2657 14.9233 21.2832 14.9174C22.9661 14.3425 24.4609 13.4435 25.9347 12.5132C26.3598 12.2449 26.7988 11.9998 27.2379 11.7548C27.4574 11.6322 27.6769 11.5097 27.8947 11.3843L27.8842 11.379C27.8961 11.3587 27.9063 11.3356 27.9164 11.3127C27.9376 11.2648 27.9586 11.2173 27.994 11.1961L28.9765 10.6212C29.0968 10.5483 29.2202 10.4766 29.3438 10.4048C29.7251 10.1833 30.1086 9.96058 30.4086 9.69611C30.8058 9.35117 31.0828 8.99054 31.2657 8.5881C31.4487 8.19089 31.5375 7.71005 31.4852 7.22399L31.433 6.92085Z" fill="white"/>
</svg>
