<svg width="68" height="59" viewBox="0 0 68 59" fill="none" xmlns="http://www.w3.org/2000/svg">
<path d="M27.7364 36.9659C27.2472 38.0903 26.6185 39.0537 25.9497 39.7723C27.6756 40.2321 28.8903 41.2368 28.9949 42.4923C29.1527 44.3882 25.6358 46.2308 22.4724 46.4925C20.7895 46.6322 17.0859 44.7895 17.0058 43.8094C16.9534 43.1673 17.2578 42.5005 17.8066 41.8887C17.51 41.7544 17.2119 41.6033 16.9149 41.4355C14.2005 39.9021 12.6121 37.5573 13.3672 36.1983C14.1223 34.8393 16.9349 34.9807 19.6493 36.5142C20.4686 36.977 21.1852 37.5137 21.7659 38.075C21.819 37.0568 22.0991 35.8812 22.6134 34.6994C23.8635 31.8264 26.0238 30.0048 27.4384 30.6307C28.8531 31.2566 28.9865 34.093 27.7364 36.9659Z" fill="white"/>
<path d="M26.9586 13.651C27.3065 12.2746 27.9219 11.04 28.6761 10.445C29.3294 9.87698 29.9852 9.47167 30.106 9.50155C30.2268 9.53143 30.6181 10.1957 30.9313 11.0028C31.3464 11.9162 31.3448 13.1318 30.8913 14.9654C30.6815 15.8138 30.4477 16.5001 30.1785 17.0536C31.4188 16.8943 32.5832 16.9822 33.1856 17.3796C35.6675 18.9832 34.9242 22.0302 31.6062 23.7398C31.0297 24.0391 30.4531 24.3384 30.3765 24.3589C29.4532 24.8959 25.7857 24.3823 25.0203 23.6703C23.9215 22.6645 24.4086 20.4128 25.8458 18.9285C23.5713 18.5221 21.2958 16.5853 21.107 14.7169C20.9644 13.7774 20.9754 12.8825 21.0751 12.7481C21.1748 12.6138 22.0283 12.3444 22.9688 12.2091C24.0693 11.9841 25.2047 12.3408 26.6489 13.413C26.7564 13.4928 26.8596 13.5721 26.9586 13.651Z" fill="white"/>
<path d="M46.5477 30.8669C46.7963 29.6661 47.3112 28.5501 47.9577 28.0402C48.4642 27.5997 48.9726 27.2855 49.0663 27.3087C49.1599 27.3318 49.4633 27.8468 49.7061 28.4726C50.0279 29.1807 50.0267 30.1232 49.6751 31.5448C49.5751 31.9495 49.4679 32.3066 49.3517 32.6214C49.971 32.6072 50.5015 32.6835 50.8226 32.8677C52.7878 33.9695 52.1147 36.1939 49.395 37.5116C48.9224 37.7422 48.4498 37.9728 48.3875 37.9895C47.6292 38.4005 44.6808 38.1165 44.0799 37.6193C43.3303 37.0094 43.5694 35.69 44.429 34.6268C43.3663 33.9814 42.543 32.9878 42.445 32.0179C42.3345 31.2895 42.343 30.5957 42.4203 30.4915C42.4976 30.3874 43.1593 30.1785 43.8885 30.0736C44.6918 29.9094 45.5191 30.1449 46.5477 30.8669Z" fill="white"/>
<path fill-rule="evenodd" clip-rule="evenodd" d="M23.8491 1.81562C14.4924 4.76259 7.10549 11.0775 4.08038 18.5853C2.603 22.234 2.4623 23.7075 2.4623 34.513C2.4623 44.1258 2.25125 47.0728 1.26632 49.8093C0.562811 51.6336 0 54.0894 0 55.212C0 57.0364 0.211054 57.317 2.04019 57.317C3.16581 57.317 6.05022 56.8259 8.51252 56.1944C12.6633 55.1419 13.2964 55.1419 20.3316 56.5452C30.8139 58.5099 36.7234 58.9309 43.5475 58.0889C57.266 56.3347 65.2861 49.2479 67.6077 36.618C70.2107 22.5848 59.5876 6.93774 43.8289 1.81562C38.6229 0.0614616 29.2662 0.0614616 23.8491 1.81562ZM45.0249 7.99024C53.6781 12.0599 58.7434 17.603 61.2057 25.6019C62.8942 31.0749 62.9645 33.1799 61.4168 38.6528C59.9394 44.0556 54.9445 49.3883 49.5977 51.2827C43.8289 53.3877 32.9245 53.5281 22.5828 51.7739C15.1959 50.5109 13.2964 50.3706 10.0603 51.0021C7.94971 51.4932 6.05022 51.7037 5.83917 51.4932C5.69846 51.2827 5.97987 50.2303 6.61303 49.0374C7.87936 46.5816 8.02006 43.354 7.3869 33.1097C6.89444 26.0931 7.03514 24.9704 8.44217 21.2516C13.5075 7.99024 31.3767 1.53495 45.0249 7.99024Z" fill="white"/>
</svg>
